<mxfile host="app.diagrams.net" agent="Mozilla/5.0 (Macintosh; Intel Mac OS X 10_15_7) AppleWebKit/605.1.15 (KHTML, like Gecko) Version/18.3 Safari/605.1.15" version="26.0.16">
  <diagram id="prtHgNgQTEPvFCAcTncT" name="Page-1">
    <mxGraphModel dx="724" dy="584" grid="1" gridSize="10" guides="1" tooltips="1" connect="1" arrows="1" fold="1" page="1" pageScale="1" pageWidth="827" pageHeight="1169" math="0" shadow="0">
      <root>
        <mxCell id="0" />
        <mxCell id="1" parent="0" />
        <mxCell id="_YIMEpo5Rv7STCM8DFQf-20" value="" style="rounded=0;whiteSpace=wrap;html=1;fontFamily=宋体;fontSize=16;" parent="1" vertex="1">
          <mxGeometry x="40" y="40" width="700" height="400" as="geometry" />
        </mxCell>
        <mxCell id="_YIMEpo5Rv7STCM8DFQf-13" value="RDS云数据库" style="rounded=0;whiteSpace=wrap;html=1;fontFamily=宋体;fontSize=16;" parent="1" vertex="1">
          <mxGeometry x="424" y="380" width="120" height="40" as="geometry" />
        </mxCell>
        <mxCell id="_YIMEpo5Rv7STCM8DFQf-15" value="应用层" style="text;html=1;align=center;verticalAlign=middle;whiteSpace=wrap;rounded=0;fontFamily=宋体;fontSize=16;" parent="1" vertex="1">
          <mxGeometry x="40" y="120" width="80" height="80" as="geometry" />
        </mxCell>
        <mxCell id="_YIMEpo5Rv7STCM8DFQf-16" value="服务层" style="text;html=1;align=center;verticalAlign=middle;whiteSpace=wrap;rounded=0;fontFamily=宋体;fontSize=16;" parent="1" vertex="1">
          <mxGeometry x="40" y="200" width="80" height="80" as="geometry" />
        </mxCell>
        <mxCell id="_YIMEpo5Rv7STCM8DFQf-17" value="基础设施" style="text;html=1;align=center;verticalAlign=middle;whiteSpace=wrap;rounded=0;fontFamily=宋体;fontSize=16;" parent="1" vertex="1">
          <mxGeometry x="40" y="360" width="80" height="80" as="geometry" />
        </mxCell>
        <mxCell id="_YIMEpo5Rv7STCM8DFQf-18" value="数据层" style="text;html=1;align=center;verticalAlign=middle;whiteSpace=wrap;rounded=0;fontFamily=宋体;fontSize=16;" parent="1" vertex="1">
          <mxGeometry x="40" y="280" width="80" height="80" as="geometry" />
        </mxCell>
        <mxCell id="_YIMEpo5Rv7STCM8DFQf-19" value="" style="endArrow=none;dashed=1;html=1;dashPattern=1 3;strokeWidth=2;rounded=0;fontFamily=宋体;fontSize=16;entryX=1;entryY=0.4;entryDx=0;entryDy=0;entryPerimeter=0;" parent="1" target="_YIMEpo5Rv7STCM8DFQf-20" edge="1">
          <mxGeometry width="50" height="50" relative="1" as="geometry">
            <mxPoint x="40" y="200" as="sourcePoint" />
            <mxPoint x="650" y="200" as="targetPoint" />
          </mxGeometry>
        </mxCell>
        <mxCell id="_YIMEpo5Rv7STCM8DFQf-21" value="" style="endArrow=none;dashed=1;html=1;dashPattern=1 3;strokeWidth=2;rounded=0;fontFamily=宋体;fontSize=16;entryX=1.001;entryY=0.6;entryDx=0;entryDy=0;entryPerimeter=0;" parent="1" target="_YIMEpo5Rv7STCM8DFQf-20" edge="1">
          <mxGeometry width="50" height="50" relative="1" as="geometry">
            <mxPoint x="40" y="279.5" as="sourcePoint" />
            <mxPoint x="660" y="280" as="targetPoint" />
          </mxGeometry>
        </mxCell>
        <mxCell id="_YIMEpo5Rv7STCM8DFQf-22" value="" style="endArrow=none;dashed=1;html=1;dashPattern=1 3;strokeWidth=2;rounded=0;fontFamily=宋体;fontSize=16;entryX=1;entryY=0.803;entryDx=0;entryDy=0;entryPerimeter=0;" parent="1" target="_YIMEpo5Rv7STCM8DFQf-20" edge="1">
          <mxGeometry width="50" height="50" relative="1" as="geometry">
            <mxPoint x="40" y="360" as="sourcePoint" />
            <mxPoint x="660" y="360" as="targetPoint" />
          </mxGeometry>
        </mxCell>
        <mxCell id="_YIMEpo5Rv7STCM8DFQf-24" value="ECI弹性容器实例" style="rounded=0;whiteSpace=wrap;html=1;fontFamily=宋体;fontSize=16;" parent="1" vertex="1">
          <mxGeometry x="244" y="380" width="160" height="40" as="geometry" />
        </mxCell>
        <mxCell id="_YIMEpo5Rv7STCM8DFQf-27" value="数据采集系统" style="rounded=0;whiteSpace=wrap;html=1;fontFamily=宋体;fontSize=16;" parent="1" vertex="1">
          <mxGeometry x="204" y="140" width="120" height="40" as="geometry" />
        </mxCell>
        <mxCell id="_YIMEpo5Rv7STCM8DFQf-28" value="车载传感器" style="rounded=0;whiteSpace=wrap;html=1;fontFamily=宋体;fontSize=16;" parent="1" vertex="1">
          <mxGeometry x="564" y="380" width="120" height="40" as="geometry" />
        </mxCell>
        <mxCell id="_YIMEpo5Rv7STCM8DFQf-30" value="SLB网络" style="rounded=0;whiteSpace=wrap;html=1;fontFamily=宋体;fontSize=16;" parent="1" vertex="1">
          <mxGeometry x="144" y="380" width="80" height="40" as="geometry" />
        </mxCell>
        <mxCell id="_YIMEpo5Rv7STCM8DFQf-31" value="SprintBoot" style="rounded=0;whiteSpace=wrap;html=1;fontFamily=宋体;fontSize=16;" parent="1" vertex="1">
          <mxGeometry x="334" y="220" width="120" height="40" as="geometry" />
        </mxCell>
        <mxCell id="_YIMEpo5Rv7STCM8DFQf-32" value="数据聚合系统" style="rounded=0;whiteSpace=wrap;html=1;fontFamily=宋体;fontSize=16;" parent="1" vertex="1">
          <mxGeometry x="344" y="140" width="120" height="40" as="geometry" />
        </mxCell>
        <mxCell id="_YIMEpo5Rv7STCM8DFQf-33" value="MyBaties" style="rounded=0;whiteSpace=wrap;html=1;fontFamily=宋体;fontSize=16;" parent="1" vertex="1">
          <mxGeometry x="474" y="220" width="120" height="40" as="geometry" />
        </mxCell>
        <mxCell id="_YIMEpo5Rv7STCM8DFQf-34" value="数据加解密系统" style="rounded=0;whiteSpace=wrap;html=1;fontFamily=宋体;fontSize=16;" parent="1" vertex="1">
          <mxGeometry x="484" y="140" width="140" height="40" as="geometry" />
        </mxCell>
        <mxCell id="_YIMEpo5Rv7STCM8DFQf-35" value="" style="endArrow=none;dashed=1;html=1;dashPattern=1 3;strokeWidth=2;rounded=0;fontFamily=宋体;fontSize=16;entryX=1.001;entryY=0.198;entryDx=0;entryDy=0;entryPerimeter=0;" parent="1" target="_YIMEpo5Rv7STCM8DFQf-20" edge="1">
          <mxGeometry width="50" height="50" relative="1" as="geometry">
            <mxPoint x="40" y="120" as="sourcePoint" />
            <mxPoint x="660" y="120" as="targetPoint" />
          </mxGeometry>
        </mxCell>
        <mxCell id="_YIMEpo5Rv7STCM8DFQf-36" value="表现层" style="text;html=1;align=center;verticalAlign=middle;whiteSpace=wrap;rounded=0;fontFamily=宋体;fontSize=16;" parent="1" vertex="1">
          <mxGeometry x="40" y="40" width="80" height="80" as="geometry" />
        </mxCell>
        <mxCell id="_YIMEpo5Rv7STCM8DFQf-37" value="Vue3" style="rounded=0;whiteSpace=wrap;html=1;fontFamily=宋体;fontSize=16;" parent="1" vertex="1">
          <mxGeometry x="120" y="60" width="80" height="40" as="geometry" />
        </mxCell>
        <mxCell id="_YIMEpo5Rv7STCM8DFQf-38" value="Vant" style="rounded=0;whiteSpace=wrap;html=1;fontFamily=宋体;fontSize=16;" parent="1" vertex="1">
          <mxGeometry x="220" y="60" width="80" height="40" as="geometry" />
        </mxCell>
        <mxCell id="_YIMEpo5Rv7STCM8DFQf-39" value="Vue Router" style="rounded=0;whiteSpace=wrap;html=1;fontFamily=宋体;fontSize=16;" parent="1" vertex="1">
          <mxGeometry x="320" y="60" width="120" height="40" as="geometry" />
        </mxCell>
        <mxCell id="_YIMEpo5Rv7STCM8DFQf-40" value="Pinia" style="rounded=0;whiteSpace=wrap;html=1;fontFamily=宋体;fontSize=16;" parent="1" vertex="1">
          <mxGeometry x="460" y="60" width="80" height="40" as="geometry" />
        </mxCell>
        <mxCell id="_YIMEpo5Rv7STCM8DFQf-41" value="系统配置数据库" style="rounded=0;whiteSpace=wrap;html=1;fontFamily=宋体;fontSize=16;" parent="1" vertex="1">
          <mxGeometry x="184" y="300" width="140" height="40" as="geometry" />
        </mxCell>
        <mxCell id="_YIMEpo5Rv7STCM8DFQf-42" value="用户管理数据库" style="rounded=0;whiteSpace=wrap;html=1;fontFamily=宋体;fontSize=16;" parent="1" vertex="1">
          <mxGeometry x="344" y="300" width="140" height="40" as="geometry" />
        </mxCell>
        <mxCell id="_YIMEpo5Rv7STCM8DFQf-43" value="任务管理数据库" style="rounded=0;whiteSpace=wrap;html=1;fontFamily=宋体;fontSize=16;" parent="1" vertex="1">
          <mxGeometry x="504" y="300" width="140" height="40" as="geometry" />
        </mxCell>
        <mxCell id="_YIMEpo5Rv7STCM8DFQf-44" value="Nginx" style="rounded=0;whiteSpace=wrap;html=1;fontFamily=宋体;fontSize=16;" parent="1" vertex="1">
          <mxGeometry x="234" y="220" width="80" height="40" as="geometry" />
        </mxCell>
        <mxCell id="_YIMEpo5Rv7STCM8DFQf-45" value="Paillier Bigint" style="rounded=0;whiteSpace=wrap;html=1;fontFamily=宋体;fontSize=16;" parent="1" vertex="1">
          <mxGeometry x="560" y="60" width="160" height="40" as="geometry" />
        </mxCell>
      </root>
    </mxGraphModel>
  </diagram>
</mxfile>
